PathFileType	4	(X/Y/Z)	./resultDataOpenSim/trcMotMarkerGrf/sub06/qtm-03-05.trc
DataRate	CameraRate	NumFrames	NumMarkers	Units	OrigDataRate	OrigDataStartFrame	OrigNumFrames
250.000000	250.000000	13	24	m	250.000000	65	518
Frame#	Time	L.Toe.Tip			R.Toe.Tip			L.Ankle.Lat			R.Ankle.Lat			L.Ankle.Med			R.Ankle.Med			L.Heel			R.Heel			L.Knee.Lat			R.Knee.Lat			L.Knee.Med			R.Knee.Med			L.Thigh.Upper			R.Thigh.Upper			L.ASIS			R.ASIS			V.Sacral			L.Acromium			R.Acromium			C7			L.Elbow			R.Elbow			L.Wrist.Lat			R.Wrist.Lat
		X1	Y1	Z1	X2	Y2	Z2	X3	Y3	Z3	X4	Y4	Z4	X5	Y5	Z5	X6	Y6	Z6	X7	Y7	Z7	X8	Y8	Z8	X9	Y9	Z9	X10	Y10	Z10	X11	Y11	Z11	X12	Y12	Z12	X13	Y13	Z13	X14	Y14	Z14	X15	Y15	Z15	X16	Y16	Z16	X17	Y17	Z17	X18	Y18	Z18	X19	Y19	Z19	X20	Y20	Z20	X21	Y21	Z21	X22	Y22	Z22	X23	Y23	Z23	X24	Y24	Z24

65	0.256	-1.2652863	0.082236891	-0.065744966	-0.82351844	0.035548362	0.11656224	-1.2784304	0.21023376	-0.092034126	-0.96011623	0.060898814	0.13343723	-1.2616974	0.21644963	-0.01063596	-0.93672759	0.079625832	0.047470885	-1.331733	0.26236891	-0.045203086	-1.012025	0.03894612	0.070222485	-0.94839478	0.38994613	-0.11421451	-0.8758512	0.43988991	0.16472658	-0.94774928	0.37884841	0.0071957344	-0.90909604	0.43019813	0.040927443	-1.009337	0.78266458	-0.11835642	-0.99118714	0.79879348	0.22751087	-0.93257228	0.83118469	-0.078270714	-0.90658239	0.84569783	0.16578394	-1.1063791	0.92110212	0.060544313	-0.97153574	1.3279526	-0.12396717	-0.97261016	1.3044847	0.23868359	-1.0464434	1.3563098	0.057639369	-1.009741	1.0066333	-0.18141647	-1.0734763	1.0017493	0.28939528	-0.83428575	0.83281516	-0.17610318	-0.94887656	0.79507965	0.31713433
66	0.26	-1.2484104	0.081892411	-0.065120138	-0.82361271	0.035560292	0.11662484	-1.2638286	0.20956001	-0.091018309	-0.95971877	0.061101074	0.13358505	-1.2469827	0.21585361	-0.0096941107	-0.93677777	0.079739238	0.047595451	-1.3179596	0.26062424	-0.043953691	-1.0121027	0.038966603	0.070238214	-0.93602862	0.39281637	-0.11392416	-0.87481527	0.43983304	0.16500679	-0.93538943	0.38178841	0.007897922	-0.90821327	0.43046225	0.041143469	-1.0028637	0.78472336	-0.11826134	-0.98651697	0.79988503	0.22797219	-0.92618578	0.83317581	-0.07757898	-0.90017396	0.84709749	0.16713712	-1.1005774	0.9228664	0.061249371	-0.96563505	1.3297759	-0.1236244	-0.96621101	1.3065725	0.23893227	-1.0402623	1.3580543	0.058019666	-1.005193	1.0088178	-0.18059932	-1.0657764	1.0034659	0.29004858	-0.83169521	0.83318378	-0.1766788	-0.93971623	0.79766081	0.31778271
67	0.264	-1.2310832	0.081433475	-0.064662794	-0.82370607	0.035569761	0.11667545	-1.2490845	0.20871272	-0.090030075	-0.95905409	0.061390577	0.13375725	-1.2321142	0.21505879	-0.0087714498	-0.93684233	0.079864951	0.047698008	-1.3041635	0.25857944	-0.042678206	-1.0122065	0.038955203	0.070295328	-0.92369576	0.39581635	-0.11361051	-0.87379352	0.43979355	0.16526293	-0.92264271	0.38477498	0.0084038984	-0.90746858	0.43070124	0.041328499	-0.99623003	0.78678518	-0.11811274	-0.98233596	0.80090671	0.2282312	-0.91972572	0.83518075	-0.076904523	-0.89425542	0.84848935	0.16839113	-1.0946646	0.9245743	0.061809788	-0.95970957	1.3315931	-0.12327438	-0.95978154	1.3086639	0.23915549	-1.0340719	1.3597913	0.058424003	-1.0006861	1.0110282	-0.17983403	-1.0582451	1.0051222	0.29001037	-0.82913182	0.83359998	-0.1772864	-0.93054751	0.80028976	0.31840409
68	0.268	-1.2132868	0.080895254	-0.064409643	-0.82379506	0.035575817	0.11671636	-1.2342235	0.20767572	-0.089039849	-0.95848795	0.061611937	0.13388156	-1.2172125	0.21405696	-0.0078487282	-0.93692432	0.080000253	0.047783386	-1.2903322	0.2561919	-0.041352166	-1.0123271	0.038938495	0.070381699	-0.91142126	0.39893045	-0.11328908	-0.8727276	0.43978932	0.16551934	-0.9097961	0.38781602	0.0088081557	-0.90664924	0.4309407	0.041493337	-0.98945645	0.78885476	-0.11784259	-0.97832769	0.80183254	0.22839288	-0.91332513	0.8371769	-0.076293762	-0.88904597	0.84987066	0.16944629	-1.0884943	0.92616988	0.062071445	-0.95375034	1.3333914	-0.12291958	-0.95332837	1.3107448	0.23935756	-1.0278729	1.3615129	0.058838788	-0.99620569	1.0132496	-0.17909226	-1.0508905	1.0067411	0.28974261	-0.82657766	0.83405714	-0.17790945	-0.92141708	0.80296129	0.31899925
69	0.272	-1.1951028	0.080289609	-0.064282377	-0.82387853	0.035579389	0.11674838	-1.2192493	0.20644442	-0.08802343	-0.95838967	0.061616634	0.13388981	-1.2022572	0.21286216	-0.0069096723	-0.93701671	0.080142981	0.047860969	-1.2764681	0.25347473	-0.039940547	-1.0124531	0.038945844	0.070473464	-0.89924817	0.40212679	-0.11296089	-0.87157673	0.43982851	0.16578843	-0.89711514	0.39090714	0.0091688895	-0.90566775	0.43120397	0.041644279	-0.98262779	0.79092538	-0.1175139	-0.97394769	0.80271315	0.22856891	-0.90702628	0.83916459	-0.075741981	-0.88421665	0.8512683	0.17032474	-1.0820689	0.92763155	0.062030286	-0.94775263	1.3351641	-0.12257278	-0.94686242	1.3128008	0.23954475	-1.0216689	1.3632101	0.059253911	-0.9917462	1.0154786	-0.17836517	-1.0437496	1.0083525	0.28962254	-0.82402209	0.83454683	-0.17854155	-0.9123407	0.80565245	0.31956571
70	0.276	-1.1766167	0.079622438	-0.064203255	-0.82395748	0.035583461	0.11677233	-1.2041651	0.20502561	-0.086983723	-0.95871417	0.061445281	0.13380716	-1.1871459	0.21149944	-0.0059412299	-0.93711001	0.080293111	0.047936504	-1.2625428	0.25047274	-0.038502232	-1.0125857	0.038978019	0.070565557	-0.8872201	0.40537318	-0.11260854	-0.87034126	0.43990396	0.16606864	-0.88470656	0.39404978	0.0095066666	-0.90467689	0.43148169	0.041799195	-0.97585416	0.79300096	-0.11721914	-0.96882318	0.80365121	0.22882982	-0.90079073	0.84114372	-0.075217448	-0.87921974	0.8527129	0.17112991	-1.0756212	0.92902133	0.061923788	-0.94172266	1.3369107	-0.1222412	-0.94039646	1.3148275	0.23972111	-1.0154672	1.3648778	0.059668144	-0.98731015	1.0177124	-0.17765669	-1.0367151	1.0099808	0.28982712	-0.82146515	0.83506254	-0.17919414	-0.9032895	0.80834397	0.32009939
71	0.28	-1.1578873	0.078896618	-0.0641346	-0.82403157	0.03559086	0.1167901	-1.1889754	0.20343124	-0.08594681	-0.95910728	0.06127443	0.13372586	-1.1718063	0.20998503	-0.0049474682	-0.93719766	0.08045139	0.048010406	-1.2485017	0.2472119	-0.037119018	-1.0127344	0.039017252	0.070676958	-0.87536181	0.4086546	-0.11221739	-0.86910496	0.43998992	0.16634144	-0.87250645	0.39727603	0.0098484301	-0.90391158	0.4317312	0.041987795	-0.96918814	0.7951089	-0.11700431	-0.96312954	0.80467241	0.22915628	-0.89456637	0.84310651	-0.074695307	-0.87382232	0.85421106	0.1719268	-1.0694144	0.9304323	0.062021616	-0.93567389	1.338627	-0.12191717	-0.93393713	1.316825	0.23988733	-1.0092757	1.3665108	0.060081592	-0.9829011	1.0199387	-0.1769716	-1.0296065	1.0116364	0.29035955	-0.81890745	0.83560192	-0.17987902	-0.89422242	0.81103277	0.32060146
72	0.284	-1.1389383	0.078118375	-0.064071261	-0.8241002	0.035600957	0.11680457	-1.1736747	0.20167079	-0.084936902	-0.95931036	0.061226527	0.13371155	-1.1562415	0.208327	-0.0039561419	-0.9372764	0.080615996	0.048079397	-1.2343068	0.24368069	-0.035797586	-1.012894	0.03906113	0.070817284	-0.86362937	0.41197297	-0.11178292	-0.86807549	0.4400349	0.16655962	-0.86039438	0.40062858	0.010232662	-0.90339311	0.43193895	0.04221676	-0.96258395	0.79728531	-0.11685958	-0.95733926	0.80570276	0.22946093	-0.88830773	0.84505746	-0.074160435	-0.86814186	0.85574444	0.17271186	-1.0635206	0.93189802	0.062379193	-0.92962151	1.3403034	-0.12158972	-0.92747742	1.3187881	0.24004522	-1.0030972	1.3680991	0.060487888	-0.97851503	1.0221413	-0.1763087	-1.0223587	1.0133082	0.29111537	-0.81634474	0.83616439	-0.18058819	-0.88512143	0.81372344	0.32108264
73	0.288	-1.1197658	0.077306812	-0.064016865	-0.82416954	0.035605542	0.11681971	-1.1582353	0.19974533	-0.08396524	-0.95925741	0.061323467	0.13377806	-1.1405157	0.20653287	-0.0029974104	-0.93734268	0.080782039	0.048141255	-1.2199452	0.23986154	-0.034507532	-1.0130102	0.039139241	0.070926427	-0.85191379	0.4153322	-0.11129899	-0.86749093	0.43997975	0.16666086	-0.84828736	0.40413765	0.010692803	-0.90293305	0.43214531	0.042429913	-0.95597005	0.79953722	-0.11673213	-0.95171285	0.80666704	0.22968029	-0.8819577	0.84702475	-0.073592734	-0.86239909	0.85727446	0.17345968	-1.0578277	0.93338851	0.062850047	-0.92357505	1.3419326	-0.1212541	-0.92099176	1.3207085	0.24020037	-0.99692824	1.3696311	0.060876584	-0.97413906	1.0243077	-0.17565777	-1.0150335	1.0149712	0.29196092	-0.81377066	0.83674693	-0.18129622	-0.87599403	0.81641429	0.32155368
74	0.292	-1.1003564	0.076487756	-0.063959707	-0.82425537	0.035588898	0.11684129	-1.1425949	0.19764876	-0.083044614	-0.9589895	0.06152723	0.13390512	-1.1246078	0.20462371	-0.0021039169	-0.93739847	0.0809412	0.048199996	-1.2054143	0.23576741	-0.033207004	-1.0129811	0.039292909	0.070875257	-0.84017285	0.4187251	-0.11076172	-0.86735102	0.43982128	0.16663752	-0.83614025	0.40781307	0.011248832	-0.90253578	0.43235407	0.042523345	-0.94930987	0.80181628	-0.11656111	-0.94618861	0.80754251	0.22982695	-0.87544659	0.84904174	-0.072962604	-0.8568314	0.85873596	0.17414846	-1.0521413	0.93488441	0.06322537	-0.9175357	1.3435138	-0.12090807	-0.91443487	1.322581	0.24035832	-0.99076561	1.3711014	0.061239598	-0.96975878	1.0264291	-0.17500364	-1.0077075	1.0166023	0.29281072	-0.81118378	0.83734033	-0.18198146	-0.86685459	0.81909507	0.3220115
75	0.296	-1.0807089	0.075681305	-0.063881757	-0.8243689	0.035542048	0.11687388	-1.1266661	0.19536262	-0.082198932	-0.95865809	0.061749309	0.13404945	-1.1083659	0.20261374	-0.0012786987	-0.93747091	0.081077514	0.048266656	-1.19072	0.23143921	-0.031792814	-1.0127536	0.039527944	0.070609404	-0.82849397	0.42213349	-0.11017719	-0.86728669	0.43965204	0.16658834	-0.82401735	0.41160496	0.011886515	-0.90243586	0.43251147	0.042460779	-0.94258492	0.80405516	-0.1163233	-0.94060125	0.80834122	0.22996452	-0.86877192	0.8511084	-0.07226102	-0.85163993	0.86005938	0.17476114	-1.0462042	0.93641236	0.063298502	-0.91150303	1.3450454	-0.12055242	-0.90778756	1.3244016	0.24052308	-0.98461166	1.3725103	0.061572749	-0.96536865	1.0285013	-0.17433989	-1.0004145	1.0181851	0.29363813	-0.80859822	0.83792763	-0.18264433	-0.85771355	0.82175427	0.32244272
76	0.3	-1.0608666	0.074899105	-0.063785266	-0.82449758	0.035481434	0.11691606	-1.1104021	0.19284556	-0.081436047	-0.9584537	0.061899317	0.13417479	-1.0917564	0.20045422	-0.00043685701	-0.93759891	0.081180085	0.048354085	-1.1758682	0.22691969	-0.030135036	-1.0124215	0.03979724	0.070261329	-0.81696811	0.42553764	-0.10954861	-0.86683802	0.43959233	0.16665859	-0.81210441	0.41541472	0.012562059	-0.90255718	0.43266102	0.042361116	-0.93577057	0.80622621	-0.11603218	-0.93486995	0.80908737	0.23016798	-0.86210285	0.8531736	-0.071536201	-0.84677403	0.86124654	0.17529867	-1.039779	0.93798219	0.062932284	-0.90547941	1.3465202	-0.12019459	-0.9011262	1.3261649	0.24069715	-0.97847093	1.3738582	0.06187682	-0.96097557	1.0305252	-0.17368166	-0.99315579	1.0197073	0.29444411	-0.80603543	0.83849032	-0.18330406	-0.84857923	0.82438572	0.32284329
77	0.304	-1.0409276	0.074141454	-0.063685945	-0.82461494	0.035438796	0.11696438	-1.093879	0.19007276	-0.080708484	-0.95844233	0.061959073	0.13427908	-1.0749731	0.19808267	0.00049862886	-0.93775937	0.081278468	0.048465246	-1.1608398	0.22223295	-0.028264029	-1.0121818	0.040037881	0.070034258	-0.80560531	0.42892003	-0.10887236	-0.86589144	0.43966644	0.16691247	-0.80051641	0.41919641	0.01325877	-0.90247776	0.43294158	0.042372246	-0.92883081	0.80834434	-0.11568976	-0.92903087	0.80980272	0.23049314	-0.85567982	0.85517321	-0.070863204	-0.84180716	0.86240475	0.17579109	-1.0329278	0.93952728	0.062210951	-0.89946337	1.3479321	-0.11984224	-0.89457275	1.3278654	0.2408782	-0.97234454	1.375141	0.062160332	-0.95658916	1.032503	-0.17305588	-0.98592523	1.0211631	0.2952389	-0.80350257	0.8390166	-0.18398047	-0.83946142	0.82698887	0.32322621
